<svg viewBox="0 0 48 58" height="58" width="48" xmlns:xlink="http://www.w3.org/1999/xlink" xmlns="http://www.w3.org/2000/svg">
  <defs>
    <clipPath id="clip-fit-2">
      <rect height="58" width="48"></rect>
    </clipPath>
  </defs>
  <g clip-path="url(#clip-fit-2)" id="fit-2">
    <g transform="translate(-27 -21)" id="Group_7">
      <g transform="translate(26.472 40)" id="Vector">
        <path d="M14.528,5h4V7h-4Z" id="Path_62"></path>
        <path d="M2.528,5h10V7h-10Z" id="Path_63"></path>
        <path d="M.528,0h2V12h-2Z" id="Path_64"></path>
        <path d="M46.528,0h2V12h-2Z" id="Path_65"></path>
        <path d="M36.528,5h10V7h-10Z" id="Path_66"></path>
        <path d="M20.528,5h3V7h-3Z" id="Path_67"></path>
        <path d="M25.528,5h3V7h-3Z" id="Path_68"></path>
        <path d="M30.528,5h4V7h-4Z" id="Path_69"></path>
      </g>
      <path fill-rule="evenodd" transform="translate(31.472 21)" d="M19.528.014C18.2,0,20.861,0,19.528.014c8.937.121,13.1,1.954,16.936,8.48,2.742,4.67,2.158,11.065,1.578,17.418v.007q-.06.653-.118,1.3c-.148,1.661-.2,3.143-.244,4.542a27.613,27.613,0,0,1-1.7,10.174c-2.41,6.166-8.773,13.9-10.258,14.979-1.3.941-3.861,1.061-6.19,1.076-1.333.009,1.333.009,0,0-2.328-.015-4.894-.135-6.19-1.076C11.854,55.839,5.491,49.1,3.081,42.938a27.612,27.612,0,0,1-1.7-10.174c-.047-1.4-.1-2.881-.244-4.542q-.039-.439-.079-.885C.463,20.764-.211,13.27,2.593,8.494,6.424,1.968,10.591.135,19.528.014Zm0,2c-4.194.059-7.051.506-9.257,1.518-2.3,1.052-4.1,2.817-5.954,5.975-1.206,2.054-1.709,4.88-1.78,8.226a87.163,87.163,0,0,0,.51,9.442q.039.437.078.872c.133,1.49.188,2.835.231,4.074q.01.3.02.587c.034,1.018.066,1.95.131,2.875a21.273,21.273,0,0,0,1.437,6.63,34.576,34.576,0,0,0,5.173,8.374,34.353,34.353,0,0,0,4.4,4.715,5.186,5.186,0,0,0,2.227.573c.87.091,1.823.115,2.787.122s1.917-.031,2.788-.122a5.186,5.186,0,0,0,2.227-.573A14.291,14.291,0,0,0,26.1,53.68c.8-.928,1.78-2.146,2.789-3.525a43.235,43.235,0,0,0,5.227-8.945,21.272,21.272,0,0,0,1.437-6.63c.065-.925.1-1.857.131-2.875q.01-.288.02-.587c.043-1.238.1-2.584.232-4.074q.059-.666.12-1.325a76.35,76.35,0,0,0,.468-8.485,15.844,15.844,0,0,0-1.78-7.729c-1.854-3.157-3.659-4.922-5.954-5.975C26.579,2.52,23.723,2.073,19.528,2.013Z" id="Vector_Stroke_"></path>
    </g>
  </g>
</svg>
