<svg viewBox="0 0 48 58" height="58" width="48" xmlns:xlink="http://www.w3.org/1999/xlink" xmlns="http://www.w3.org/2000/svg">
  <defs>
    <clipPath id="clip-fit-3">
      <rect height="58" width="48"></rect>
    </clipPath>
  </defs>
  <g clip-path="url(#clip-fit-3)" id="fit-3">
    <path fill-rule="evenodd" transform="translate(2.943)" d="M19.057.007c.327,0,1.66-.007,2-.007s1.673,0,2,.007c8.937.121,13.1,1.955,16.936,8.482,2.742,4.671,2.158,11.067,1.578,17.421v.006q-.06.653-.118,1.305c-.148,1.661-.2,3.144-.244,4.542a27.621,27.621,0,0,1-1.7,10.176c-2.41,6.167-8.772,13.9-10.258,14.982-1.3.941-3.861,1.061-6.19,1.076-.34,0-1.675,0-2,0s-1.66,0-2,0c-2.328-.015-4.894-.135-6.19-1.076C11.382,55.843,5.02,49.107,2.609,42.939a27.622,27.622,0,0,1-1.7-10.176c-.047-1.4-.1-2.882-.244-4.542q-.039-.439-.079-.885C-.009,20.761-.683,13.266,2.121,8.488,5.952,1.961,10.119.128,19.057.007Zm0,2c-4.194.059-7.051.507-9.257,1.518C7.5,4.577,5.7,6.343,3.846,9.5c-1.206,2.054-1.709,4.881-1.78,8.228a87.2,87.2,0,0,0,.51,9.444q.039.437.078.872c.133,1.49.188,2.836.231,4.075q.01.3.02.587c.034,1.019.066,1.95.131,2.876a21.281,21.281,0,0,0,1.437,6.631,34.586,34.586,0,0,0,5.173,8.376,34.351,34.351,0,0,0,4.4,4.716,5.185,5.185,0,0,0,2.227.573c.87.091,1.823.115,2.787.122h4c.965-.007,1.917-.031,2.788-.122a5.185,5.185,0,0,0,2.227-.573,14.3,14.3,0,0,0,1.554-1.62c.8-.928,1.78-2.146,2.789-3.526a43.236,43.236,0,0,0,5.227-8.947,21.28,21.28,0,0,0,1.436-6.631c.065-.926.1-1.857.131-2.876q.01-.288.02-.587c.043-1.239.1-2.584.231-4.074q.059-.667.12-1.325a76.353,76.353,0,0,0,.468-8.487A15.85,15.85,0,0,0,38.268,9.5c-1.854-3.158-3.659-4.923-5.954-5.976-2.206-1.012-5.063-1.459-9.257-1.518h-4Z" id="Vector_Stroke_"></path>
    <g transform="translate(-0.057 19)" id="Vector">
      <path d="M14.057,5h4V7h-4Z" id="Path_70"></path>
      <path d="M2.057,5h10V7h-10Z" id="Path_71"></path>
      <path d="M.057,0h2V12h-2Z" id="Path_72"></path>
      <path d="M46.057,0h2V12h-2Z" id="Path_73"></path>
      <path d="M36.057,5h10V7h-10Z" id="Path_74"></path>
      <path d="M20.057,5h3V7h-3Z" id="Path_75"></path>
      <path d="M25.057,5h3V7h-3Z" id="Path_76"></path>
      <path d="M30.057,5h4V7h-4Z" id="Path_77"></path>
    </g>
  </g>
</svg>
